# xmcd CD database file
#
# Track frame offsets:
#	150
#	2117
#	21734
#	39726
#	52516
#	64880
#	69547
#	78492
#	95503
#	97453
#	111274
#	121054
#	123980
#	132172
#	150645
#	163253
#
# Disc length: 2962 seconds
#
# Revision: 2
# Processed by: cddbd v1.4PL0 Copyright (c) Steve Scherf et al.
# Submitted via: CDex 1.50beta9
#
DISCID=dd0b9010
DTITLE=Scott Biram - This is Kingsbury
DYEAR=2000
DGENRE=Blues
TTITLE0=Nola's Greens
TTITLE1=Lost John [Rock Island Line]
TTITLE2=Goin' Overload
TTITLE3=Whitehouse Blues
TTITLE4=No Little Way
TTITLE5=A Little Talent
TTITLE6=Can You Line 'Em
TTITLE7=Wreck My Car
TTITLE8=This is Maw Maw
TTITLE9=Wabash Cannonball
TTITLE10=Lost Case of Being Found
TTITLE11=For Ol' Deb
TTITLE12=Cornpone Girl
TTITLE13=Truck-Stop [Doodilidoo]
TTITLE14=Freight Train Blues
TTITLE15=A Farewell from On High
EXTD=YEAR: 2000
EXTT0=
EXTT1=
EXTT2=
EXTT3=
EXTT4=
EXTT5=
EXTT6=
EXTT7=
EXTT8=
EXTT9=
EXTT10=
EXTT11=
EXTT12=
EXTT13=
EXTT14=
EXTT15=
PLAYORDER=
